<?xml version="1.0" encoding="utf-8"?>
<!-- Generator: Adobe Illustrator 16.0.0, SVG Export Plug-In . SVG Version: 6.00 Build 0)  -->
<!DOCTYPE svg PUBLIC "-//W3C//DTD SVG 1.1//EN" "http://www.w3.org/Graphics/SVG/1.1/DTD/svg11.dtd">
<svg version="1.1" id="Layer_1" xmlns="http://www.w3.org/2000/svg" xmlns:xlink="http://www.w3.org/1999/xlink" x="0px" y="0px"
	 width="16.833px" height="27.884px" viewBox="0 0 16.833 27.884" enable-background="new 0 0 16.833 27.884" xml:space="preserve">
<rect x="7.769" y="13.196" fill="#FFFFFF" width="0.88" height="4.399"/>
<path fill="#FFFFFF" d="M8.649,13.999h-0.88v-1.584c0-0.967,0.767-1.753,1.71-1.753c0.942,0,1.71,0.786,1.71,1.753h-0.88
	c0-0.481-0.373-0.873-0.83-0.873c-0.458,0-0.83,0.392-0.83,0.873V13.999z"/>
<rect x="10.309" y="12.415" fill="#FFFFFF" width="0.88" height="5.18"/>
<path fill="#FFFFFF" d="M6.109,14.912H5.228V8.176c0-0.967,0.768-1.753,1.711-1.753c0.942,0,1.71,0.787,1.71,1.753h-0.88
	c0-0.481-0.373-0.873-0.83-0.873c-0.458,0-0.83,0.392-0.83,0.873V14.912z"/>
<rect x="7.769" y="8.176" fill="#FFFFFF" width="0.88" height="6.627"/>
<path fill="#FFFFFF" d="M13.729,13.689h-0.88c0-0.481-0.373-0.873-0.83-0.873c-0.458,0-0.83,0.392-0.83,0.873h-0.881
	c0-0.967,0.768-1.753,1.711-1.753S13.729,12.723,13.729,13.689"/>
<rect x="12.849" y="13.689" fill="#FFFFFF" width="0.88" height="3.753"/>
<path fill="#FFFFFF" d="M16.269,14.546h-0.88c0-0.482-0.372-0.874-0.83-0.874c-0.457,0-0.83,0.392-0.83,0.874h-0.88
	c0-0.967,0.767-1.754,1.71-1.754S16.269,13.579,16.269,14.546"/>
<path fill="#FFFFFF" d="M15.211,27.884h-0.881v-1.168c0-0.07,0.017-0.14,0.05-0.202l1.009-1.948v-10.02h0.88v10.127
	c0,0.07-0.017,0.141-0.049,0.203l-1.009,1.947V27.884z"/>
<path fill="#FFFFFF" d="M6.011,27.714H5.13v-1.091L3.235,24.5c-0.038-0.041-0.066-0.09-0.085-0.143l-2.438-6.67
	c-0.036-0.113-0.28-0.951,0.202-1.496c0.309-0.351,0.801-0.467,1.462-0.348c1.244,0.227,2.272,1.686,2.853,2.713l0.005-3.645
	l0.881,0.001l-0.006,4.325c0,0.09-0.028,0.179-0.08,0.252l-0.342,0.487c-0.092,0.13-0.246,0.202-0.405,0.185
	c-0.157-0.016-0.295-0.115-0.358-0.262c-0.355-0.815-1.534-2.978-2.704-3.189c-0.317-0.059-0.559-0.035-0.644,0.063
	c-0.111,0.123-0.086,0.441-0.032,0.624l2.404,6.579l1.951,2.187c0.072,0.081,0.112,0.185,0.112,0.293V27.714z"/>
<path fill="#FFFFFF" d="M9.519,8.447L8.763,7.996c0.195-0.327,0.299-0.704,0.299-1.088c0-1.173-0.954-2.127-2.127-2.127
	S4.807,5.735,4.807,6.908c0,0.332,0.075,0.651,0.222,0.946L4.241,8.246C4.033,7.828,3.927,7.377,3.927,6.908
	c0-1.659,1.35-3.007,3.008-3.007s3.008,1.349,3.008,3.007C9.943,7.451,9.796,7.983,9.519,8.447"/>
<path fill="#FFFFFF" d="M9.771,10.59L9.234,9.893c0.935-0.721,1.471-1.81,1.471-2.989c0-2.079-1.69-3.77-3.77-3.77
	s-3.771,1.691-3.771,3.77c0,1.059,0.449,2.075,1.232,2.789l-0.593,0.65c-0.966-0.879-1.52-2.133-1.52-3.439
	c0-2.564,2.086-4.65,4.65-4.65s4.65,2.086,4.65,4.65C11.585,8.358,10.924,9.701,9.771,10.59"/>
<path fill="#FFFFFF" d="M9.771,10.59L9.234,9.893c0.935-0.721,1.471-1.81,1.471-2.989c0-2.079-1.69-3.77-3.77-3.77
	s-3.771,1.691-3.771,3.77c0,1.059,0.449,2.075,1.232,2.789l-0.593,0.65c-0.966-0.879-1.52-2.133-1.52-3.439
	c0-2.564,2.086-4.65,4.65-4.65s4.65,2.086,4.65,4.65C11.585,8.358,10.924,9.701,9.771,10.59"/>
<path fill="#FFFFFF" d="M4.063,12.627c-2.204-1.1-3.574-3.312-3.574-5.774c0-3.556,2.894-6.449,6.45-6.449
	c3.556,0,6.449,2.893,6.449,6.449c0,1.577-0.575,3.095-1.619,4.274l-0.659-0.583c0.901-1.018,1.397-2.329,1.397-3.69
	c0-3.071-2.498-5.569-5.568-5.569c-3.071,0-5.569,2.498-5.569,5.569c0,2.126,1.183,4.037,3.086,4.987L4.063,12.627z"/>
</svg>
