<svg xmlns="http://www.w3.org/2000/svg" width="24" height="31" fill="none" viewBox="0 0 24 31">
    <path fill="#F5F5F5" d="M18.468 4.1c1.594 1.058 3.19 2.116 4.782 3.18.158.105.253.098.346-.073.09-.165.188-.33.305-.476.15-.187.13-.302-.062-.459-1.091-.89-2.194-1.767-3.247-2.7-1.233-1.094-2.418-2.24-3.624-3.362C16.9.147 16.829.087 16.73 0c-.063.11-.118.192-.16.28-1.276 2.735-2.752 5.36-4.321 7.935-.242.396-.264.333.117.621.569.43.564.428.988-.148 1.075-1.459 2.153-2.914 3.23-4.37.029-.038.065-.071.118-.13.026.073.048.117.057.163.371 1.968.658 3.943.613 5.954-.094 4.209-1.296 8.045-3.856 11.415-2.07 2.726-4.726 4.71-7.864 6.059-1.704.732-3.48 1.211-5.309 1.51-.377.06-.376.065-.312.441.036.212.081.422.109.635.029.221.134.273.352.237 1.57-.263 3.111-.627 4.608-1.173 2.827-1.03 5.355-2.549 7.52-4.646 3.489-3.381 5.472-7.508 6.042-12.322a22.426 22.426 0 0 0-.066-5.774c-.113-.807-.254-1.61-.383-2.415-.016-.1-.035-.2-.052-.3a7.15 7.15 0 0 1 .055-.04l.25.167z"/>
    <path fill="#F5F5F5" d="M18.217 3.932l.25.167c1.595 1.06 3.19 2.117 4.783 3.18.158.106.253.099.346-.072.09-.165.188-.33.305-.476.15-.187.13-.302-.062-.459-1.091-.89-2.194-1.767-3.247-2.7-1.233-1.094-2.418-2.24-3.624-3.362C16.9.147 16.829.087 16.73 0c-.063.11-.118.192-.16.28-1.276 2.735-2.752 5.36-4.321 7.935-.242.396-.264.333.117.621.569.43.564.428.988-.148 1.075-1.459 2.153-2.914 3.23-4.37.029-.038.065-.071.118-.13.026.073.048.117.057.163.371 1.968.658 3.943.613 5.954-.094 4.209-1.296 8.045-3.856 11.415-2.07 2.726-4.726 4.71-7.864 6.059-1.704.732-3.48 1.211-5.309 1.51-.377.06-.376.065-.312.441.036.212.081.422.109.635.029.221.134.273.352.237 1.57-.263 3.111-.627 4.608-1.173 2.827-1.03 5.355-2.549 7.52-4.646 3.489-3.381 5.472-7.508 6.042-12.322a22.426 22.426 0 0 0-.066-5.774c-.113-.807-.254-1.61-.383-2.415-.016-.1-.035-.2-.052-.301l.055-.039z"/>
</svg>
