<?xml version="1.0" encoding="utf-8"?>
<!-- Generator: Adobe Illustrator 22.1.0, SVG Export Plug-In . SVG Version: 6.00 Build 0)  -->
<svg version="1.1" id="Capa_1" xmlns="http://www.w3.org/2000/svg" xmlns:xlink="http://www.w3.org/1999/xlink" x="0px" y="0px"
	 viewBox="0 0 512 512" style="enable-background:new 0 0 512 512;" xml:space="preserve">
<style type="text/css">
	.st0{fill:#4B4B4B;}
	.st1{fill:#FFFFFF;}
</style>
<path class="st0" d="M256,0C114.8,0,0,114.8,0,256s114.8,256,256,256s256-114.8,256-256S397.2,0,256,0z"/>
<path class="st1" d="M245.3,426.7c-17.6,0-32-14.4-32-32s14.4-32,32-32s32,14.4,32,32S263,426.7,245.3,426.7z M277.3,296.5v34.1
	c0,5.9-4.8,10.7-10.7,10.7H224c-5.9,0-10.7-4.8-10.7-10.7v-53.3c0-23.5,19.1-42.7,42.7-42.7s42.7-19.1,42.7-42.7
	s-19.1-42.7-42.7-42.7s-42.7,19.1-42.7,42.7v10.7c0,5.9-4.8,10.7-10.7,10.7H160c-5.9,0-10.7-4.8-10.7-10.7V192
	c0-58.8,47.9-106.7,106.7-106.7S362.7,133.2,362.7,192C362.7,243.2,326.6,286.6,277.3,296.5z"/>
</svg>
